# xmcd
#
# Track frame offsets:
#   150
#   12865
#   27910
#   40552
#   52215
#   66809
#   83710
#   100103
#   117013
#   132191
#   147781
#   162014
#   175554
#   192315
#   204266
#   217158
#   230975
#   245781
#   259617
#   277280
#
# Disc length: 3855 seconds
#
# Revision: 0
# Processed by: cddbd v1.5.2PL0 Copyright (c) Steve Scherf et al.
# Submitted via: uFREEDB ActiveX Control 1.5
#
DISCID=1e0f0d14
DTITLE=Diversos - Nois trupica no sertanejo
DYEAR=1900
DGENRE=Country
TTITLE0=01 Balancou, sacudiu
TTITLE1=02 De bad boy a peao
TTITLE2=03 Cheguei galera
TTITLE3=04 Nois gosta de muie
TTITLE4=05 Galera de chapeu
TTITLE5=06 Rodimania
TTITLE6=07 Brega demais
TTITLE7=08 Fera mansa
TTITLE8=09 Eu me enganei
TTITLE9=10 Que pescar que nada
TTITLE10=11 Vou de fusca
TTITLE11=12 Peao de vitrine
TTITLE12=13 Alo, meu povo
TTITLE13=14 Oito segundos
TTITLE14=15 Sapatio, sapatio
TTITLE15=16 Eu sou peao
TTITLE16=17 Galera coracao
TTITLE17=18 Festa de peao
TTITLE18=19 Sistema bruto
TTITLE19=20 Na saideira
EXTD=
EXTT0=
EXTT1=
EXTT2=
EXTT3=
EXTT4=
EXTT5=
EXTT6=
EXTT7=
EXTT8=
EXTT9=
EXTT10=
EXTT11=
EXTT12=
EXTT13=
EXTT14=
EXTT15=
EXTT16=
EXTT17=
EXTT18=
EXTT19=
PLAYORDER=
